<svg width="5885" height="2661" viewBox="0 0 5885 2661" fill="none" xmlns="http://www.w3.org/2000/svg">
<path fill-rule="evenodd" clip-rule="evenodd" d="M1787 150L1939 0H207L359 150H1787ZM1938.5 262C1965.58 262.065 1992.89 267.431 2017.91 277.795C2043.08 288.223 2065.96 303.507 2085.22 322.775C2104.49 342.043 2119.78 364.918 2130.21 390.093C2140.63 415.268 2146 442.251 2146 469.5C2146 496.75 2140.63 523.732 2130.21 548.907C2119.78 574.082 2104.49 596.957 2085.22 616.225C2065.96 635.493 2043.08 650.777 2017.91 661.205C1992.89 671.569 1966.08 676.935 1939 677L1789 527H1938.5C1946.05 526.999 1953.53 525.512 1960.5 522.622C1967.48 519.732 1973.82 515.497 1979.16 510.158C1984.5 504.819 1988.73 498.48 1991.62 491.504C1994.51 484.528 1996 477.051 1996 469.5C1996 461.949 1994.51 454.472 1991.62 447.496C1988.73 440.52 1984.5 434.182 1979.16 428.842C1973.82 423.503 1967.48 419.268 1960.5 416.378C1953.53 413.488 1946.05 412.001 1938.5 412H1410H1148V947H998V412H736H207.5C199.949 412.001 192.472 413.488 185.496 416.378C178.52 419.268 172.181 423.503 166.842 428.842C161.503 434.182 157.268 440.52 154.378 447.496C151.488 454.472 150.001 461.949 150.001 469.5C150.001 477.051 151.488 484.528 154.378 491.504C157.268 498.48 161.503 504.819 166.842 510.158C172.181 515.497 178.52 519.732 185.496 522.622C192.472 525.512 199.949 526.999 207.5 527H358L207.001 677C179.921 676.934 153.114 671.569 128.093 661.205C102.918 650.777 80.0435 635.493 60.7754 616.225C41.5073 596.957 26.2229 574.082 15.7949 548.907C5.36719 523.732 0 496.75 0 469.5C0 442.251 5.36719 415.269 15.7949 390.093C26.2229 364.918 41.5071 342.043 60.7754 322.775C80.0435 303.507 102.918 288.223 128.093 277.795C153.114 267.431 180.421 262.066 207.5 262H1938.5ZM736 412L886 562V947H736V412ZM1410 412V947H1260V562L1410 412ZM998 1998H1148V2661H998V1998ZM886 1998H736V2661L886 2511V1998ZM624 698V947H474V548L624 698ZM624 1998H474V2398L624 2248V1998ZM1410 1998H1260V2511L1410 2661V1998ZM1521 2248V1998H1671V2398L1521 2248ZM1521 947H1671V548L1521 698V947ZM1671 1087H1318.63L966.265 1280.23V1164.82L1106.16 1087H966.265H613.898H474L613.898 1164.82V1280.23V1473.47V1782.12L474 1859.93H613.898H966.265H1106.16L966.265 1782.12V1666.7H1318.63L1671 1473.47V1087ZM1318.63 1473.47L966.265 1666.7V1473.47H613.898L966.265 1280.23H1318.63V1473.47ZM1803.21 1087.08V1473H1953.96V1364.46H2189.73C2221.89 1364.46 2245.61 1365.67 2260.89 1368.08C2276.56 1370.49 2286.61 1374.91 2291.04 1381.34C2295.86 1387.37 2298.27 1396.42 2298.27 1408.48V1473H2449.02V1390.39C2449.02 1372.7 2443.8 1359.23 2433.34 1349.99C2423.29 1340.34 2405.21 1333.71 2379.07 1330.09C2372.99 1329.23 2366.28 1328.47 2358.95 1327.79C2362.47 1327.2 2365.97 1326.56 2369.43 1325.87C2387.52 1322.25 2403.6 1316.42 2417.67 1308.38C2431.74 1300.34 2442.79 1289.08 2450.83 1274.61C2458.87 1260.14 2462.89 1241.85 2462.89 1219.74C2462.89 1186.37 2454.25 1160.04 2436.96 1140.75C2420.08 1121.45 2396.96 1107.78 2367.62 1099.74C2338.67 1091.3 2305.91 1087.08 2269.33 1087.08H1803.21ZM2269.33 1263.76H1953.96V1207.68H2269.33C2281.39 1207.68 2291.44 1209.69 2299.48 1213.71C2307.92 1217.33 2312.14 1224.36 2312.14 1234.81C2312.14 1246.07 2307.92 1253.71 2299.48 1257.73C2291.44 1261.75 2281.39 1263.76 2269.33 1263.76ZM2693.49 1462.15C2746.96 1477.42 2817.51 1485.06 2905.15 1485.06C2992.78 1485.06 3063.33 1477.42 3116.8 1462.15C3170.26 1446.47 3209.06 1423.55 3233.18 1393.4C3257.7 1362.85 3269.96 1325.06 3269.96 1280.04C3269.96 1235.02 3257.7 1197.43 3233.18 1167.28C3209.06 1136.73 3170.26 1113.81 3116.8 1098.54C3063.33 1082.86 2992.78 1075.02 2905.15 1075.02C2817.51 1075.02 2746.96 1082.86 2693.49 1098.54C2640.03 1113.81 2601.03 1136.73 2576.51 1167.28C2552.39 1197.43 2540.33 1235.02 2540.33 1280.04C2540.33 1325.06 2552.39 1362.85 2576.51 1393.4C2601.03 1423.55 2640.03 1446.47 2693.49 1462.15ZM3012.48 1363.25C2982.33 1368.08 2946.55 1370.49 2905.15 1370.49C2863.74 1370.49 2827.36 1368.08 2796 1363.25C2765.05 1358.03 2740.73 1348.98 2723.04 1336.12C2705.75 1322.85 2697.11 1304.16 2697.11 1280.04C2697.11 1255.92 2705.75 1237.43 2723.04 1224.56C2740.73 1211.3 2765.05 1202.25 2796 1197.43C2827.36 1192.2 2863.74 1189.59 2905.15 1189.59C2946.55 1189.59 2982.33 1192.2 3012.48 1197.43C3042.63 1202.25 3065.95 1211.3 3082.43 1224.56C3098.91 1237.43 3107.15 1255.92 3107.15 1280.04C3107.15 1304.16 3098.91 1322.85 3082.43 1336.12C3065.95 1348.98 3042.63 1358.03 3012.48 1363.25ZM3508.19 1087.08H3357.44V1473H3508.19V1087.08ZM3748.74 1462.15C3802.21 1477.42 3872.76 1485.06 3960.4 1485.06C4048.03 1485.06 4118.58 1477.42 4172.05 1462.15C4225.51 1446.47 4264.31 1423.55 4288.43 1393.4C4312.95 1362.85 4325.21 1325.06 4325.21 1280.04C4325.21 1235.02 4312.95 1197.43 4288.43 1167.28C4264.31 1136.73 4225.51 1113.81 4172.05 1098.54C4118.58 1082.86 4048.03 1075.02 3960.4 1075.02C3872.76 1075.02 3802.21 1082.86 3748.74 1098.54C3695.28 1113.81 3656.28 1136.73 3631.76 1167.28C3607.64 1197.43 3595.58 1235.02 3595.58 1280.04C3595.58 1325.06 3607.64 1362.85 3631.76 1393.4C3656.28 1423.55 3695.28 1446.47 3748.74 1462.15ZM4067.73 1363.25C4037.58 1368.08 4001.8 1370.49 3960.4 1370.49C3918.99 1370.49 3882.61 1368.08 3851.25 1363.25C3820.3 1358.03 3795.98 1348.98 3778.29 1336.12C3761 1322.85 3752.36 1304.16 3752.36 1280.04C3752.36 1255.92 3761 1237.43 3778.29 1224.56C3795.98 1211.3 3820.3 1202.25 3851.25 1197.43C3882.61 1192.2 3918.99 1189.59 3960.4 1189.59C4001.8 1189.59 4037.58 1192.2 4067.73 1197.43C4097.88 1202.25 4121.2 1211.3 4137.68 1224.56C4154.16 1237.43 4162.4 1255.92 4162.4 1280.04C4162.4 1304.16 4154.16 1322.85 4137.68 1336.12C4121.2 1348.98 4097.88 1358.03 4067.73 1363.25ZM4994.71 1087.08H4801.75L4675.12 1198.4L4548.49 1087.08H4355.53L4581.84 1278.22L4349.5 1473H4542.46L4674.75 1358.04L4807.78 1473H5000.74L4768.03 1278.49L4994.71 1087.08ZM5220.62 1087.08H5069.87V1473H5220.62V1087.08ZM5457.55 1331.3H5292.93C5292.93 1350.59 5297.35 1368.28 5306.2 1384.36C5315.44 1400.04 5328.71 1414.31 5346 1427.17C5363.28 1439.63 5384.39 1450.29 5409.31 1459.13C5434.23 1467.57 5462.58 1474.01 5494.33 1478.43C5526.49 1482.85 5561.67 1485.06 5599.86 1485.06C5667.39 1485.06 5722.07 1480.44 5763.87 1471.19C5805.68 1461.94 5836.23 1447.67 5855.53 1428.38C5874.83 1409.08 5884.47 1384.16 5884.47 1353.61C5884.47 1335.92 5880.25 1320.64 5871.81 1307.78C5863.37 1294.51 5849.7 1283.66 5830.81 1275.22C5812.32 1266.77 5787.99 1260.54 5757.84 1256.52C5727.69 1252.1 5691.11 1249.89 5648.1 1249.89C5609.1 1249.89 5576.94 1249.49 5551.62 1248.68C5526.29 1247.88 5506.59 1246.47 5492.52 1244.46C5478.86 1242.05 5469.21 1239.04 5463.58 1235.42C5457.95 1231.8 5455.14 1226.98 5455.14 1220.95C5455.14 1209.29 5465.19 1201.05 5485.29 1196.22C5505.79 1191.4 5536.95 1188.99 5578.75 1188.99C5620.96 1188.99 5653.53 1192.6 5676.44 1199.84C5699.35 1206.68 5711.82 1216.72 5713.83 1229.99H5870C5870 1179.74 5845.48 1141.35 5796.44 1114.82C5747.79 1087.88 5677.24 1074.42 5584.78 1074.42C5521.67 1074.42 5469.01 1079.44 5426.8 1089.49C5384.99 1099.14 5353.63 1114.01 5332.73 1134.11C5312.23 1153.81 5301.98 1178.94 5301.98 1209.49C5301.98 1227.18 5306.4 1242.45 5315.24 1255.32C5324.09 1267.78 5337.75 1278.23 5356.25 1286.67C5375.14 1294.71 5399.06 1300.74 5428 1304.76C5457.35 1308.38 5492.12 1310.19 5532.32 1310.19C5586.19 1310.19 5628 1310.99 5657.75 1312.6C5687.49 1314.21 5708.2 1317.22 5719.85 1321.65C5731.51 1325.67 5737.34 1331.5 5737.34 1339.13C5737.34 1347.17 5733.72 1353.61 5726.49 1358.43C5719.25 1362.85 5706.79 1366.07 5689.1 1368.08C5671.82 1369.69 5648.1 1370.49 5617.95 1370.49C5587.4 1370.49 5560.46 1369.08 5537.15 1366.27C5514.23 1363.05 5495.94 1358.63 5482.27 1353C5468.6 1346.97 5460.36 1339.74 5457.55 1331.3Z" fill="#D9D9D9"/>
</svg>
